<svg width="81" height="72" viewBox="0 0 81 72" fill="none" xmlns="http://www.w3.org/2000/svg">
<path d="M44.8487 25.0663C44.8487 23.5336 44.8487 22.7673 44.6438 22.0926C43.9311 19.7505 41.4305 17.7673 37.934 16.7714C36.9266 16.4845 35.7257 16.2986 33.3244 15.9269L32.9698 15.872C30.2305 15.4479 28.8608 15.236 27.7258 14.89C24.468 13.8976 22.1225 12.0373 21.3575 9.83977C21.0908 9.07378 21.0908 8.19962 21.0908 6.45135V3" stroke="#040F16" stroke-width="5" stroke-linecap="round"/>
<path d="M50.2367 51.2109C51.8868 51.2109 53.242 52.5794 53.242 54.2893C53.242 55.9991 51.8868 57.3676 50.2367 57.3676C48.5866 57.3676 47.2314 55.9991 47.2314 54.2893C47.2314 52.5794 48.5866 51.2109 50.2367 51.2109Z" fill="#040F16" stroke="#040F16"/>
<path d="M25.44 35.3071C26.778 35.3071 28.0558 36.743 28.0558 38.783V54.6866C28.0558 56.7267 26.778 58.1625 25.44 58.1625C24.102 58.1625 22.8242 56.7267 22.8242 54.6866V38.783C22.8242 36.743 24.102 35.3071 25.44 35.3071Z" fill="#040F16" stroke="#040F16"/>
<path d="M3.3374 47.1327C3.3374 37.7221 3.3374 33.0169 5.89275 29.7754C6.55061 28.9409 7.31803 28.194 8.17539 27.5536C11.5056 25.0664 16.3397 25.0664 26.008 25.0664H54.8615C64.5299 25.0664 69.3641 25.0664 72.6942 27.5536C73.5516 28.194 74.3191 28.9409 74.977 29.7754C77.5321 33.0169 77.5321 37.7221 77.5321 47.1327C77.5321 56.5432 77.5321 61.2485 74.977 64.49C74.3191 65.3245 73.5516 66.0714 72.6942 66.7117C69.3641 69.1989 64.5299 69.1989 54.8615 69.1989H26.008C16.3397 69.1989 11.5056 69.1989 8.17539 66.7117C7.31803 66.0714 6.55061 65.3245 5.89275 64.49C3.3374 61.2485 3.3374 56.5432 3.3374 47.1327Z" stroke="#040F16" stroke-width="5"/>
<path d="M36.6245 46.7349C36.6245 48.1255 35.2041 49.4156 33.2298 49.4156H17.6508C15.6765 49.4156 14.2561 48.1255 14.2561 46.7349C14.2561 45.3443 15.6765 44.0542 17.6508 44.0542H33.2298C35.2041 44.0542 36.6245 45.3443 36.6245 46.7349Z" fill="#040F16" stroke="#040F16"/>
<path d="M62.7001 36.1025C64.3502 36.1025 65.7053 37.471 65.7053 39.1809C65.7053 40.8907 64.3502 42.2592 62.7001 42.2592C61.05 42.2592 59.6948 40.8907 59.6948 39.1809C59.6948 37.471 61.05 36.1025 62.7001 36.1025Z" fill="#040F16" stroke="#040F16"/>
</svg>
