<svg width="197" height="67" viewBox="0 0 197 67" fill="none" xmlns="http://www.w3.org/2000/svg">
<path d="M37.7812 0.78125C42.3438 0.78125 46.0625 1.40625 48.9375 2.65625C51.875 3.90625 54.4375 5.53125 56.625 7.53125V16.8125C55.25 15.8125 53.6875 14.7187 51.9375 13.5312C50.25 12.3438 48.25 11.3125 45.9375 10.4375C43.6875 9.5 40.9688 9.03125 37.7812 9.03125C33.0938 9.03125 28.9062 10.0938 25.2188 12.2188C21.5312 14.3437 18.625 17.2812 16.5 21.0312C14.375 24.7188 13.3125 28.9062 13.3125 33.5938C13.3125 38.2812 14.375 42.4688 16.5 46.1562C18.625 49.8438 21.5312 52.7812 25.2188 54.9688C28.9062 57.0938 33.0938 58.1562 37.7812 58.1562C42.5938 58.1562 46.6875 57.375 50.0625 55.8125C53.5 54.1875 56.3125 52.5312 58.5 50.8438V59.2812C56.3125 61.2188 53.4375 62.9062 49.875 64.3438C46.375 65.7188 42.3438 66.4062 37.7812 66.4062C33.0312 66.4062 28.6562 65.5625 24.6562 63.875C20.6562 62.125 17.1562 59.75 14.1562 56.75C11.1562 53.75 8.8125 50.2812 7.125 46.3438C5.5 42.3438 4.6875 38.0938 4.6875 33.5938C4.6875 29.0938 5.5 24.875 7.125 20.9375C8.8125 16.9375 11.1562 13.4375 14.1562 10.4375C17.1562 7.4375 20.6562 5.09375 24.6562 3.40625C28.6562 1.65625 33.0312 0.78125 37.7812 0.78125Z" fill="#FBFBFF"/>
<path d="M27.5835 31.9168C27.5835 27.9885 27.5835 26.0243 28.8039 24.8039C30.0243 23.5835 31.9885 23.5835 35.9168 23.5835H40.0835C44.0119 23.5835 45.9761 23.5835 47.1964 24.8039C48.4168 26.0243 48.4168 27.9885 48.4168 31.9168V36.0835C48.4168 40.0119 48.4168 41.9761 47.1964 43.1964C45.9761 44.4168 44.0119 44.4168 40.0835 44.4168H35.9168C31.9885 44.4168 30.0243 44.4168 28.8039 43.1964C27.5835 41.9761 27.5835 40.0119 27.5835 36.0835V31.9168Z" stroke="#FBFBFF" stroke-width="4"/>
<rect x="33.8335" y="29.8335" width="8.33333" height="8.33333" rx="1" fill="#FBFBFF"/>
<path d="M33.8335 23.5835V17.3335" stroke="#FBFBFF" stroke-width="4" stroke-linecap="round"/>
<path d="M42.167 23.5835V17.3335" stroke="#FBFBFF" stroke-width="4" stroke-linecap="round"/>
<path d="M48.4165 29.8335L54.6665 29.8335" stroke="#FBFBFF" stroke-width="4" stroke-linecap="round"/>
<path d="M48.4165 38.167L54.6665 38.167" stroke="#FBFBFF" stroke-width="4" stroke-linecap="round"/>
<path d="M33.8335 50.6665V44.4165" stroke="#FBFBFF" stroke-width="4" stroke-linecap="round"/>
<path d="M42.167 50.6665V44.4165" stroke="#FBFBFF" stroke-width="4" stroke-linecap="round"/>
<path d="M21.3335 29.8335L27.5835 29.8335" stroke="#FBFBFF" stroke-width="4" stroke-linecap="round"/>
<path d="M21.3335 38.167L27.5835 38.167" stroke="#FBFBFF" stroke-width="4" stroke-linecap="round"/>
<path d="M74.36 47.4C72.6533 47.4 71.1467 47.1067 69.84 46.52C68.5333 45.9333 67.52 44.96 66.8 43.6C66.08 42.24 65.72 40.4133 65.72 38.12C65.72 35.8533 66.1067 33.9467 66.88 32.4C67.6533 30.8267 68.72 29.64 70.08 28.84C71.4667 28.04 73.0267 27.64 74.76 27.64C75.9067 27.64 76.92 27.7733 77.8 28.04C78.7067 28.3067 79.5733 28.72 80.4 29.28V20.04H84.76V47H81.04L80.76 45.12C79.9067 45.8933 78.9733 46.4667 77.96 46.84C76.9467 47.2133 75.7467 47.4 74.36 47.4ZM75.52 44.12C77.4667 44.12 79.0933 43.4533 80.4 42.12V32.64C79.1467 31.52 77.5733 30.96 75.68 30.96C73.84 30.96 72.4533 31.5733 71.52 32.8C70.5867 34.0267 70.12 35.8133 70.12 38.16C70.12 40.4267 70.5467 41.9867 71.4 42.84C72.28 43.6933 73.6533 44.12 75.52 44.12ZM99.0106 47.4C95.704 47.4 93.144 46.5867 91.3306 44.96C89.5173 43.3333 88.6106 40.84 88.6106 37.48C88.6106 34.44 89.384 32.04 90.9306 30.28C92.4773 28.52 94.824 27.64 97.9706 27.64C100.851 27.64 103.011 28.4 104.451 29.92C105.917 31.4133 106.651 33.3467 106.651 35.72V39.24H92.7706C92.984 41.08 93.6506 42.3467 94.7706 43.04C95.8906 43.7333 97.5973 44.08 99.8906 44.08C100.851 44.08 101.837 43.9867 102.851 43.8C103.864 43.6133 104.744 43.3733 105.491 43.08V46.28C104.637 46.6533 103.651 46.9333 102.531 47.12C101.437 47.3067 100.264 47.4 99.0106 47.4ZM92.7706 36.4H102.811V35.08C102.811 33.7733 102.451 32.76 101.731 32.04C101.011 31.2933 99.7973 30.92 98.0906 30.92C96.064 30.92 94.664 31.36 93.8906 32.24C93.144 33.12 92.7706 34.5067 92.7706 36.4ZM110.895 55.64V28.04H114.655L114.895 29.92C115.748 29.1467 116.682 28.5733 117.695 28.2C118.708 27.8267 119.908 27.64 121.295 27.64C124.015 27.64 126.135 28.3867 127.655 29.88C129.175 31.3467 129.935 33.7867 129.935 37.2C129.935 40.6133 129.148 43.1733 127.575 44.88C126.002 46.56 123.855 47.4 121.135 47.4C118.842 47.4 116.882 46.8667 115.255 45.8V55.64H110.895ZM120.015 44.12C123.695 44.12 125.535 41.8 125.535 37.16C125.535 34.92 125.122 33.3333 124.295 32.4C123.468 31.44 122.082 30.96 120.135 30.96C118.188 30.96 116.562 31.6267 115.255 32.96V42.44C115.868 42.9467 116.548 43.36 117.295 43.68C118.068 43.9733 118.975 44.12 120.015 44.12ZM140.096 47.4C138.896 47.4 137.776 47.1867 136.736 46.76C135.723 46.3333 134.91 45.6933 134.296 44.84C133.683 43.96 133.376 42.88 133.376 41.6C133.376 39.7867 133.99 38.3333 135.216 37.24C136.47 36.12 138.39 35.56 140.976 35.56H147.056V34.72C147.056 33.8133 146.91 33.0933 146.616 32.56C146.35 32.0267 145.843 31.64 145.096 31.4C144.376 31.16 143.31 31.04 141.896 31.04C139.656 31.04 137.563 31.3733 135.616 32.04V28.8C136.47 28.4533 137.51 28.1733 138.736 27.96C139.963 27.7467 141.283 27.64 142.696 27.64C145.47 27.64 147.576 28.2 149.016 29.32C150.483 30.44 151.216 32.2667 151.216 34.8V47H147.496L147.216 45.08C146.443 45.8267 145.483 46.4 144.336 46.8C143.216 47.2 141.803 47.4 140.096 47.4ZM141.256 44.28C142.563 44.28 143.696 44.0667 144.656 43.64C145.643 43.1867 146.443 42.5867 147.056 41.84V38.52H141.056C139.776 38.52 138.843 38.7733 138.256 39.28C137.696 39.76 137.416 40.5067 137.416 41.52C137.416 42.5067 137.75 43.2133 138.416 43.64C139.083 44.0667 140.03 44.28 141.256 44.28ZM163.731 54.04C162.318 54.04 160.905 53.9467 159.491 53.76C158.078 53.6 156.878 53.3467 155.891 53V49.64C156.958 49.9867 158.185 50.2533 159.571 50.44C160.958 50.6267 162.278 50.72 163.531 50.72C165.451 50.72 166.851 50.6133 167.731 50.4C168.611 50.1867 169.051 49.7067 169.051 48.96C169.051 48.4 168.838 48 168.411 47.76C167.985 47.5467 167.171 47.44 165.971 47.44H160.851C157.411 47.44 155.691 46.2267 155.691 43.8C155.691 43.0267 155.918 42.3067 156.371 41.64C156.825 40.9733 157.545 40.4667 158.531 40.12C157.438 39.5867 156.625 38.8533 156.091 37.92C155.585 36.9867 155.331 35.8667 155.331 34.56C155.331 32.1333 156.051 30.3733 157.491 29.28C158.958 28.1867 161.145 27.64 164.051 27.64C164.665 27.64 165.305 27.6933 165.971 27.8C166.638 27.88 167.158 27.96 167.531 28.04H174.491L174.371 30.88H171.171C171.678 31.3067 172.051 31.84 172.291 32.48C172.531 33.12 172.651 33.8133 172.651 34.56C172.651 36.5867 172.038 38.1867 170.811 39.36C169.585 40.5067 167.731 41.08 165.251 41.08C164.825 41.08 164.425 41.0667 164.051 41.04C163.705 40.9867 163.318 40.9333 162.891 40.88C162.091 40.96 161.371 41.1733 160.731 41.52C160.091 41.8667 159.771 42.3333 159.771 42.92C159.771 43.32 159.931 43.6133 160.251 43.8C160.571 43.96 161.105 44.04 161.851 44.04H167.171C169.065 44.04 170.518 44.4533 171.531 45.28C172.571 46.08 173.091 47.2533 173.091 48.8C173.091 50.6667 172.278 52 170.651 52.8C169.051 53.6267 166.745 54.04 163.731 54.04ZM164.051 38.32C165.785 38.32 166.985 38.0267 167.651 37.44C168.345 36.8533 168.691 35.8533 168.691 34.44C168.691 33.0267 168.345 32 167.651 31.36C166.985 30.72 165.785 30.4 164.051 30.4C162.425 30.4 161.238 30.7067 160.491 31.32C159.745 31.9333 159.371 32.9733 159.371 34.44C159.371 35.8 159.718 36.7867 160.411 37.4C161.131 38.0133 162.345 38.32 164.051 38.32ZM187.409 47.4C184.102 47.4 181.542 46.5867 179.729 44.96C177.916 43.3333 177.009 40.84 177.009 37.48C177.009 34.44 177.782 32.04 179.329 30.28C180.876 28.52 183.222 27.64 186.369 27.64C189.249 27.64 191.409 28.4 192.849 29.92C194.316 31.4133 195.049 33.3467 195.049 35.72V39.24H181.169C181.382 41.08 182.049 42.3467 183.169 43.04C184.289 43.7333 185.996 44.08 188.289 44.08C189.249 44.08 190.236 43.9867 191.249 43.8C192.262 43.6133 193.142 43.3733 193.889 43.08V46.28C193.036 46.6533 192.049 46.9333 190.929 47.12C189.836 47.3067 188.662 47.4 187.409 47.4ZM181.169 36.4H191.209V35.08C191.209 33.7733 190.849 32.76 190.129 32.04C189.409 31.2933 188.196 30.92 186.489 30.92C184.462 30.92 183.062 31.36 182.289 32.24C181.542 33.12 181.169 34.5067 181.169 36.4Z" fill="#FBFBFF"/>
</svg>
