<svg width="217" height="81" viewBox="0 0 217 81" fill="none" xmlns="http://www.w3.org/2000/svg">
<path d="M47.7812 8.28125C52.3438 8.28125 56.0625 8.90625 58.9375 10.1562C61.875 11.4063 64.4375 13.0312 66.625 15.0312V24.3125C65.25 23.3125 63.6875 22.2187 61.9375 21.0312C60.25 19.8438 58.25 18.8125 55.9375 17.9375C53.6875 17 50.9688 16.5312 47.7812 16.5312C43.0938 16.5312 38.9062 17.5938 35.2188 19.7188C31.5312 21.8437 28.625 24.7812 26.5 28.5312C24.375 32.2188 23.3125 36.4062 23.3125 41.0938C23.3125 45.7812 24.375 49.9688 26.5 53.6562C28.625 57.3438 31.5312 60.2812 35.2188 62.4688C38.9062 64.5938 43.0938 65.6562 47.7812 65.6562C52.5938 65.6562 56.6875 64.875 60.0625 63.3125C63.5 61.6875 66.3125 60.0312 68.5 58.3438V66.7812C66.3125 68.7188 63.4375 70.4062 59.875 71.8438C56.375 73.2188 52.3438 73.9062 47.7812 73.9062C43.0312 73.9062 38.6562 73.0625 34.6562 71.375C30.6562 69.625 27.1562 67.25 24.1562 64.25C21.1562 61.25 18.8125 57.7812 17.125 53.8438C15.5 49.8438 14.6875 45.5938 14.6875 41.0938C14.6875 36.5938 15.5 32.375 17.125 28.4375C18.8125 24.4375 21.1562 20.9375 24.1562 17.9375C27.1562 14.9375 30.6562 12.5938 34.6562 10.9062C38.6562 9.15625 43.0312 8.28125 47.7812 8.28125Z" fill="#0685AE"/>
<path d="M37.5835 39.4168C37.5835 35.4885 37.5835 33.5243 38.8039 32.3039C40.0243 31.0835 41.9885 31.0835 45.9168 31.0835H50.0835C54.0119 31.0835 55.9761 31.0835 57.1964 32.3039C58.4168 33.5243 58.4168 35.4885 58.4168 39.4168V43.5835C58.4168 47.5119 58.4168 49.4761 57.1964 50.6964C55.9761 51.9168 54.0119 51.9168 50.0835 51.9168H45.9168C41.9885 51.9168 40.0243 51.9168 38.8039 50.6964C37.5835 49.4761 37.5835 47.5119 37.5835 43.5835V39.4168Z" stroke="#0685AE" stroke-width="4"/>
<rect x="43.8335" y="37.3335" width="8.33333" height="8.33333" rx="1" fill="#0685AE"/>
<path d="M43.8335 31.0835V24.8335" stroke="#0685AE" stroke-width="4" stroke-linecap="round"/>
<path d="M52.167 31.0835V24.8335" stroke="#0685AE" stroke-width="4" stroke-linecap="round"/>
<path d="M58.4165 37.3335L64.6665 37.3335" stroke="#0685AE" stroke-width="4" stroke-linecap="round"/>
<path d="M58.4165 45.667L64.6665 45.667" stroke="#0685AE" stroke-width="4" stroke-linecap="round"/>
<path d="M43.8335 58.1665V51.9165" stroke="#0685AE" stroke-width="4" stroke-linecap="round"/>
<path d="M52.167 58.1665V51.9165" stroke="#0685AE" stroke-width="4" stroke-linecap="round"/>
<path d="M31.3335 37.3335L37.5835 37.3335" stroke="#0685AE" stroke-width="4" stroke-linecap="round"/>
<path d="M31.3335 45.667L37.5835 45.667" stroke="#0685AE" stroke-width="4" stroke-linecap="round"/>
<path d="M84.36 54.9C82.6533 54.9 81.1467 54.6067 79.84 54.02C78.5333 53.4333 77.52 52.46 76.8 51.1C76.08 49.74 75.72 47.9133 75.72 45.62C75.72 43.3533 76.1067 41.4467 76.88 39.9C77.6533 38.3267 78.72 37.14 80.08 36.34C81.4667 35.54 83.0267 35.14 84.76 35.14C85.9067 35.14 86.92 35.2733 87.8 35.54C88.7067 35.8067 89.5733 36.22 90.4 36.78V27.54H94.76V54.5H91.04L90.76 52.62C89.9067 53.3933 88.9733 53.9667 87.96 54.34C86.9467 54.7133 85.7467 54.9 84.36 54.9ZM85.52 51.62C87.4667 51.62 89.0933 50.9533 90.4 49.62V40.14C89.1467 39.02 87.5733 38.46 85.68 38.46C83.84 38.46 82.4533 39.0733 81.52 40.3C80.5867 41.5267 80.12 43.3133 80.12 45.66C80.12 47.9267 80.5467 49.4867 81.4 50.34C82.28 51.1933 83.6533 51.62 85.52 51.62ZM109.011 54.9C105.704 54.9 103.144 54.0867 101.331 52.46C99.5173 50.8333 98.6106 48.34 98.6106 44.98C98.6106 41.94 99.384 39.54 100.931 37.78C102.477 36.02 104.824 35.14 107.971 35.14C110.851 35.14 113.011 35.9 114.451 37.42C115.917 38.9133 116.651 40.8467 116.651 43.22V46.74H102.771C102.984 48.58 103.651 49.8467 104.771 50.54C105.891 51.2333 107.597 51.58 109.891 51.58C110.851 51.58 111.837 51.4867 112.851 51.3C113.864 51.1133 114.744 50.8733 115.491 50.58V53.78C114.637 54.1533 113.651 54.4333 112.531 54.62C111.437 54.8067 110.264 54.9 109.011 54.9ZM102.771 43.9H112.811V42.58C112.811 41.2733 112.451 40.26 111.731 39.54C111.011 38.7933 109.797 38.42 108.091 38.42C106.064 38.42 104.664 38.86 103.891 39.74C103.144 40.62 102.771 42.0067 102.771 43.9ZM120.895 63.14V35.54H124.655L124.895 37.42C125.748 36.6467 126.682 36.0733 127.695 35.7C128.708 35.3267 129.908 35.14 131.295 35.14C134.015 35.14 136.135 35.8867 137.655 37.38C139.175 38.8467 139.935 41.2867 139.935 44.7C139.935 48.1133 139.148 50.6733 137.575 52.38C136.002 54.06 133.855 54.9 131.135 54.9C128.842 54.9 126.882 54.3667 125.255 53.3V63.14H120.895ZM130.015 51.62C133.695 51.62 135.535 49.3 135.535 44.66C135.535 42.42 135.122 40.8333 134.295 39.9C133.468 38.94 132.082 38.46 130.135 38.46C128.188 38.46 126.562 39.1267 125.255 40.46V49.94C125.868 50.4467 126.548 50.86 127.295 51.18C128.068 51.4733 128.975 51.62 130.015 51.62ZM150.096 54.9C148.896 54.9 147.776 54.6867 146.736 54.26C145.723 53.8333 144.91 53.1933 144.296 52.34C143.683 51.46 143.376 50.38 143.376 49.1C143.376 47.2867 143.99 45.8333 145.216 44.74C146.47 43.62 148.39 43.06 150.976 43.06H157.056V42.22C157.056 41.3133 156.91 40.5933 156.616 40.06C156.35 39.5267 155.843 39.14 155.096 38.9C154.376 38.66 153.31 38.54 151.896 38.54C149.656 38.54 147.563 38.8733 145.616 39.54V36.3C146.47 35.9533 147.51 35.6733 148.736 35.46C149.963 35.2467 151.283 35.14 152.696 35.14C155.47 35.14 157.576 35.7 159.016 36.82C160.483 37.94 161.216 39.7667 161.216 42.3V54.5H157.496L157.216 52.58C156.443 53.3267 155.483 53.9 154.336 54.3C153.216 54.7 151.803 54.9 150.096 54.9ZM151.256 51.78C152.563 51.78 153.696 51.5667 154.656 51.14C155.643 50.6867 156.443 50.0867 157.056 49.34V46.02H151.056C149.776 46.02 148.843 46.2733 148.256 46.78C147.696 47.26 147.416 48.0067 147.416 49.02C147.416 50.0067 147.75 50.7133 148.416 51.14C149.083 51.5667 150.03 51.78 151.256 51.78ZM173.731 61.54C172.318 61.54 170.905 61.4467 169.491 61.26C168.078 61.1 166.878 60.8467 165.891 60.5V57.14C166.958 57.4867 168.185 57.7533 169.571 57.94C170.958 58.1267 172.278 58.22 173.531 58.22C175.451 58.22 176.851 58.1133 177.731 57.9C178.611 57.6867 179.051 57.2067 179.051 56.46C179.051 55.9 178.838 55.5 178.411 55.26C177.985 55.0467 177.171 54.94 175.971 54.94H170.851C167.411 54.94 165.691 53.7267 165.691 51.3C165.691 50.5267 165.918 49.8067 166.371 49.14C166.825 48.4733 167.545 47.9667 168.531 47.62C167.438 47.0867 166.625 46.3533 166.091 45.42C165.585 44.4867 165.331 43.3667 165.331 42.06C165.331 39.6333 166.051 37.8733 167.491 36.78C168.958 35.6867 171.145 35.14 174.051 35.14C174.665 35.14 175.305 35.1933 175.971 35.3C176.638 35.38 177.158 35.46 177.531 35.54H184.491L184.371 38.38H181.171C181.678 38.8067 182.051 39.34 182.291 39.98C182.531 40.62 182.651 41.3133 182.651 42.06C182.651 44.0867 182.038 45.6867 180.811 46.86C179.585 48.0067 177.731 48.58 175.251 48.58C174.825 48.58 174.425 48.5667 174.051 48.54C173.705 48.4867 173.318 48.4333 172.891 48.38C172.091 48.46 171.371 48.6733 170.731 49.02C170.091 49.3667 169.771 49.8333 169.771 50.42C169.771 50.82 169.931 51.1133 170.251 51.3C170.571 51.46 171.105 51.54 171.851 51.54H177.171C179.065 51.54 180.518 51.9533 181.531 52.78C182.571 53.58 183.091 54.7533 183.091 56.3C183.091 58.1667 182.278 59.5 180.651 60.3C179.051 61.1267 176.745 61.54 173.731 61.54ZM174.051 45.82C175.785 45.82 176.985 45.5267 177.651 44.94C178.345 44.3533 178.691 43.3533 178.691 41.94C178.691 40.5267 178.345 39.5 177.651 38.86C176.985 38.22 175.785 37.9 174.051 37.9C172.425 37.9 171.238 38.2067 170.491 38.82C169.745 39.4333 169.371 40.4733 169.371 41.94C169.371 43.3 169.718 44.2867 170.411 44.9C171.131 45.5133 172.345 45.82 174.051 45.82ZM197.409 54.9C194.102 54.9 191.542 54.0867 189.729 52.46C187.916 50.8333 187.009 48.34 187.009 44.98C187.009 41.94 187.782 39.54 189.329 37.78C190.876 36.02 193.222 35.14 196.369 35.14C199.249 35.14 201.409 35.9 202.849 37.42C204.316 38.9133 205.049 40.8467 205.049 43.22V46.74H191.169C191.382 48.58 192.049 49.8467 193.169 50.54C194.289 51.2333 195.996 51.58 198.289 51.58C199.249 51.58 200.236 51.4867 201.249 51.3C202.262 51.1133 203.142 50.8733 203.889 50.58V53.78C203.036 54.1533 202.049 54.4333 200.929 54.62C199.836 54.8067 198.662 54.9 197.409 54.9ZM191.169 43.9H201.209V42.58C201.209 41.2733 200.849 40.26 200.129 39.54C199.409 38.7933 198.196 38.42 196.489 38.42C194.462 38.42 193.062 38.86 192.289 39.74C191.542 40.62 191.169 42.0067 191.169 43.9Z" fill="#0685AE"/>
</svg>
