<svg width="80" height="80" viewBox="0 0 80 80" fill="none" xmlns="http://www.w3.org/2000/svg">
<g clip-path="url(#clip0_774_2017)">
<path d="M40 80C62.0914 80 80 62.0914 80 40C80 17.9086 62.0914 0 40 0C17.9086 0 0 17.9086 0 40C0 62.0914 17.9086 80 40 80Z" fill="#FBFBFF"/>
<path d="M14.0271 41.7039C18.7255 39.1363 23.9701 36.9933 28.8704 34.8394C37.3009 31.3116 45.7648 27.8448 54.3142 24.6173C55.9776 24.0674 58.9664 23.5297 59.2594 25.9753C59.0989 29.437 58.4387 32.8785 57.986 36.32C56.8367 43.8882 55.5084 51.4304 54.213 58.9736C53.7667 61.4863 50.5941 62.787 48.5641 61.179C43.6856 57.9098 38.7695 54.6722 33.9533 51.327C32.3756 49.7366 33.8386 47.4525 35.2476 46.3168C39.2657 42.3882 43.527 39.0504 47.3351 34.9187C48.3624 32.4578 45.3272 34.5318 44.3261 35.1673C38.8252 38.9282 33.459 42.9185 27.6594 46.2238C24.697 47.8417 21.2442 46.4591 18.2831 45.5564C15.6281 44.4657 11.7379 43.3667 14.0271 41.7039Z" fill="#0685AE"/>
</g>
<defs>
<clipPath id="clip0_774_2017">
<rect width="80" height="80" fill="white"/>
</clipPath>
</defs>
</svg>
