<svg width="61" height="60" viewBox="0 0 61 60" fill="none" xmlns="http://www.w3.org/2000/svg">
<path d="M45.2903 11.2293C42.3832 9.6 41.4451 5.9136 43.0669 3.00069C44.1773 1.02857 46.2284 0 48.2795 0C49.3051 0 50.3307 0.257828 51.2715 0.770742C54.1786 2.48503 55.1167 6.17143 53.4949 8.99932C52.3846 10.9714 50.3334 12 48.2823 12C47.2567 12 46.2311 11.7422 45.2903 11.2293ZM60.2473 28.2871H50.3334C49.9916 23.6571 47.6833 19.5429 44.18 16.8878C43.5811 16.4599 42.9821 16.0293 42.2984 15.6014C40.075 14.4 37.5124 13.7143 34.7776 13.7143C31.9579 13.7143 29.3926 14.4 27.0844 15.6864L21.6147 7.3728C25.4599 5.05783 29.904 3.77143 34.7776 3.77143C36.6591 3.77143 38.538 3.94423 40.4196 4.37211C39.7358 7.71566 41.1881 11.2293 44.2648 13.0286C45.4626 13.7143 46.8301 14.0571 48.2823 14.0571C50.2486 14.0571 52.1275 13.3714 53.5824 12.085C57.5151 16.3721 59.9929 22.0279 60.25 28.2843L60.2473 28.2871ZM19.7358 8.6592L25.2056 16.9728C21.787 19.6306 19.4788 23.6599 19.2217 28.2871C19.1369 28.6299 19.1369 28.9728 19.1369 29.4007C19.1369 29.7435 19.1369 30.1714 19.2217 30.5143C19.5636 35.3993 22.1288 39.6014 25.8893 42.2565L20.6766 50.7429C15.7183 47.4843 11.9579 42.5143 10.2486 36.6857C12.6416 35.3143 14.3509 32.6565 14.3509 29.6558C14.3509 26.6551 12.6416 23.9122 10.0763 22.5408C11.7008 16.8823 15.1194 11.9973 19.7331 8.65371L19.7358 8.6592ZM6.23386 23.6571C9.56765 23.6571 12.3025 26.315 12.3025 29.6585C12.3025 33.0021 9.56765 35.7449 6.23386 35.7449C2.90008 35.7449 0.25 33.0021 0.25 29.6585C0.25 26.315 2.90008 23.6571 6.23386 23.6571ZM22.643 51.9442L27.8556 43.3728C29.9068 44.4014 32.2998 45.0021 34.7776 45.0021C37.5124 45.0021 40.0777 44.3163 42.3832 43.0299C43.0669 42.6871 43.6658 42.2592 44.2648 41.7435C47.6833 39.1707 49.9916 35.1442 50.3334 30.5143H60.2473C59.9902 37.0286 57.2553 42.9422 52.9835 47.3143C51.7008 46.3707 50.0763 45.8578 48.4546 45.8578C47.0024 45.8578 45.6349 46.2007 44.4371 46.8864C41.7022 48.5157 40.25 51.4286 40.4196 54.3442C38.538 54.7721 36.6591 55.0299 34.7776 55.0299C30.3334 55.0299 26.2339 53.9163 22.643 51.9442ZM48.4518 47.915C50.503 47.915 52.5541 48.9435 53.6645 50.9157C55.289 53.8313 54.2634 57.6027 51.441 59.2293C50.5002 59.7449 49.4747 60 48.4491 60C46.3132 60 44.3468 58.9714 43.2365 56.9993C41.5272 54.0837 42.5527 50.4 45.4599 48.6857C46.4007 48.1701 47.4263 47.915 48.4518 47.915Z" fill="#040F16"/>
</svg>
