<svg width="60" height="60" viewBox="0 0 60 60" fill="none" xmlns="http://www.w3.org/2000/svg">
<path d="M20.7105 0.618492C20.5209 0.969261 18.4345 4.81849 16.0681 9.17542L11.7598 17.1046L11.9223 17.5385C12.0127 17.7785 12.2746 18.2954 12.5004 18.6831C14.8578 22.7631 19.8977 25.9662 25.8588 27.1754C27.0511 27.4154 28.7852 27.6646 28.8394 27.5908C28.9388 27.4708 38.296 10.2277 38.296 10.1631C38.296 10.117 37.9979 10.0523 37.6457 10.0246C35.8122 9.84003 33.2922 9.26772 31.6574 8.65849C29.4807 7.84618 27.0149 6.41541 25.3079 4.95695C23.8356 3.69234 22.1195 1.70772 21.4331 0.461569C21.2976 0.203108 21.1531 3.05176e-05 21.117 3.05176e-05C21.0809 3.05176e-05 20.9002 0.276955 20.7105 0.618492Z" fill="#040F16"/>
<path d="M41.3399 11.4093C38.1336 17.2709 32.4253 27.8493 32.4253 27.9416C32.4253 28.0062 32.4885 28.0616 32.5788 28.0616C32.9582 28.0616 35.6859 28.7539 36.9865 29.1786C40.3464 30.277 43.3541 31.8924 45.8831 33.9509C47.003 34.8647 48.7553 36.6555 49.5591 37.7262C50.0288 38.3447 50.2275 38.5478 50.2907 38.4647C50.363 38.3724 55.8996 28.117 59.0699 22.2186L60.0002 20.4832L59.6931 20.0309C58.1306 17.7416 55.2132 15.2493 52.1152 13.5416C49.4507 12.0739 45.5669 10.8739 42.487 10.5693L41.8367 10.5047L41.3399 11.4093Z" fill="#040F16"/>
<path d="M9.32109 21.3414C8.49014 22.763 0 38.5199 0 38.6491C0 38.7414 0.162577 39.1014 0.361283 39.443C1.95996 42.2491 4.92248 44.7968 8.5353 46.4953C10.8294 47.566 14.5145 48.6184 16.5738 48.7937L17.2061 48.8491L20.5028 42.766C25.1362 34.2276 26.9156 30.9137 26.9156 30.8214C26.9156 30.7753 26.8794 30.7384 26.8343 30.7384C26.7891 30.7384 26.1659 30.6368 25.4433 30.5168C18.9854 29.3907 13.2591 26.1691 10.2514 21.9507C9.90818 21.4614 9.59205 21.0553 9.55593 21.0553C9.52883 21.046 9.42044 21.1845 9.32109 21.3414Z" fill="#040F16"/>
<path d="M30.2305 31.8646C28.957 34.1077 20.6927 49.4308 20.7468 49.4492C20.783 49.4585 21.5326 49.6154 22.3997 49.7908C25.2087 50.3631 27.3854 51.1015 29.7608 52.3015C33.193 54.0185 36.3272 56.6585 38.2058 59.4185C38.4226 59.7415 38.6303 60 38.6665 60C38.7026 60 38.9465 59.5938 39.2084 59.0954C39.4703 58.6062 41.5567 54.7108 43.8509 50.4462C46.145 46.1815 48.0959 42.5538 48.1772 42.3877L48.3308 42.0831L47.9243 41.4092C46.0186 38.2892 42.5954 35.4738 38.549 33.7015C36.3091 32.7231 33.3556 31.8831 30.8718 31.5323L30.4473 31.4677L30.2305 31.8646Z" fill="#040F16"/>
</svg>
