<svg width="217" height="80" viewBox="0 0 217 80" fill="none" xmlns="http://www.w3.org/2000/svg">
<path d="M47.7812 7.78125C52.3438 7.78125 56.0625 8.40625 58.9375 9.65625C61.875 10.9063 64.4375 12.5312 66.625 14.5312V23.8125C65.25 22.8125 63.6875 21.7187 61.9375 20.5312C60.25 19.3438 58.25 18.3125 55.9375 17.4375C53.6875 16.5 50.9688 16.0312 47.7812 16.0312C43.0938 16.0312 38.9062 17.0938 35.2188 19.2188C31.5312 21.3437 28.625 24.2812 26.5 28.0312C24.375 31.7188 23.3125 35.9062 23.3125 40.5938C23.3125 45.2812 24.375 49.4688 26.5 53.1562C28.625 56.8438 31.5312 59.7812 35.2188 61.9688C38.9062 64.0938 43.0938 65.1562 47.7812 65.1562C52.5938 65.1562 56.6875 64.375 60.0625 62.8125C63.5 61.1875 66.3125 59.5312 68.5 57.8438V66.2812C66.3125 68.2188 63.4375 69.9062 59.875 71.3438C56.375 72.7188 52.3438 73.4062 47.7812 73.4062C43.0312 73.4062 38.6562 72.5625 34.6562 70.875C30.6562 69.125 27.1562 66.75 24.1562 63.75C21.1562 60.75 18.8125 57.2812 17.125 53.3438C15.5 49.3438 14.6875 45.0938 14.6875 40.5938C14.6875 36.0938 15.5 31.875 17.125 27.9375C18.8125 23.9375 21.1562 20.4375 24.1562 17.4375C27.1562 14.4375 30.6562 12.0938 34.6562 10.4062C38.6562 8.65625 43.0312 7.78125 47.7812 7.78125Z" fill="white"/>
<path d="M37.5833 38.9166C37.5833 34.9882 37.5833 33.024 38.8036 31.8036C40.024 30.5833 41.9882 30.5833 45.9166 30.5833H50.0833C54.0116 30.5833 55.9758 30.5833 57.1962 31.8036C58.4166 33.024 58.4166 34.9882 58.4166 38.9166V43.0833C58.4166 47.0116 58.4166 48.9758 57.1962 50.1962C55.9758 51.4166 54.0116 51.4166 50.0833 51.4166H45.9166C41.9882 51.4166 40.024 51.4166 38.8036 50.1962C37.5833 48.9758 37.5833 47.0116 37.5833 43.0833V38.9166Z" stroke="white" stroke-width="4"/>
<rect x="43.8333" y="36.8333" width="8.33333" height="8.33333" rx="1" fill="white"/>
<path d="M43.8333 30.5833V24.3333" stroke="white" stroke-width="4" stroke-linecap="round"/>
<path d="M52.1665 30.5833V24.3333" stroke="white" stroke-width="4" stroke-linecap="round"/>
<path d="M58.4167 36.8333L64.6667 36.8333" stroke="white" stroke-width="4" stroke-linecap="round"/>
<path d="M58.4167 45.1665L64.6667 45.1665" stroke="white" stroke-width="4" stroke-linecap="round"/>
<path d="M43.8333 57.6667V51.4167" stroke="white" stroke-width="4" stroke-linecap="round"/>
<path d="M52.1665 57.6667V51.4167" stroke="white" stroke-width="4" stroke-linecap="round"/>
<path d="M31.3333 36.8333L37.5833 36.8333" stroke="white" stroke-width="4" stroke-linecap="round"/>
<path d="M31.3333 45.1665L37.5833 45.1665" stroke="white" stroke-width="4" stroke-linecap="round"/>
<path d="M84.36 54.4C82.6533 54.4 81.1467 54.1067 79.84 53.52C78.5333 52.9333 77.52 51.96 76.8 50.6C76.08 49.24 75.72 47.4133 75.72 45.12C75.72 42.8533 76.1067 40.9467 76.88 39.4C77.6533 37.8267 78.72 36.64 80.08 35.84C81.4667 35.04 83.0267 34.64 84.76 34.64C85.9067 34.64 86.92 34.7733 87.8 35.04C88.7067 35.3067 89.5733 35.72 90.4 36.28V27.04H94.76V54H91.04L90.76 52.12C89.9067 52.8933 88.9733 53.4667 87.96 53.84C86.9467 54.2133 85.7467 54.4 84.36 54.4ZM85.52 51.12C87.4667 51.12 89.0933 50.4533 90.4 49.12V39.64C89.1467 38.52 87.5733 37.96 85.68 37.96C83.84 37.96 82.4533 38.5733 81.52 39.8C80.5867 41.0267 80.12 42.8133 80.12 45.16C80.12 47.4267 80.5467 48.9867 81.4 49.84C82.28 50.6933 83.6533 51.12 85.52 51.12ZM109.011 54.4C105.704 54.4 103.144 53.5867 101.331 51.96C99.5173 50.3333 98.6106 47.84 98.6106 44.48C98.6106 41.44 99.384 39.04 100.931 37.28C102.477 35.52 104.824 34.64 107.971 34.64C110.851 34.64 113.011 35.4 114.451 36.92C115.917 38.4133 116.651 40.3467 116.651 42.72V46.24H102.771C102.984 48.08 103.651 49.3467 104.771 50.04C105.891 50.7333 107.597 51.08 109.891 51.08C110.851 51.08 111.837 50.9867 112.851 50.8C113.864 50.6133 114.744 50.3733 115.491 50.08V53.28C114.637 53.6533 113.651 53.9333 112.531 54.12C111.437 54.3067 110.264 54.4 109.011 54.4ZM102.771 43.4H112.811V42.08C112.811 40.7733 112.451 39.76 111.731 39.04C111.011 38.2933 109.797 37.92 108.091 37.92C106.064 37.92 104.664 38.36 103.891 39.24C103.144 40.12 102.771 41.5067 102.771 43.4ZM120.895 62.64V35.04H124.655L124.895 36.92C125.748 36.1467 126.682 35.5733 127.695 35.2C128.708 34.8267 129.908 34.64 131.295 34.64C134.015 34.64 136.135 35.3867 137.655 36.88C139.175 38.3467 139.935 40.7867 139.935 44.2C139.935 47.6133 139.148 50.1733 137.575 51.88C136.002 53.56 133.855 54.4 131.135 54.4C128.842 54.4 126.882 53.8667 125.255 52.8V62.64H120.895ZM130.015 51.12C133.695 51.12 135.535 48.8 135.535 44.16C135.535 41.92 135.122 40.3333 134.295 39.4C133.468 38.44 132.082 37.96 130.135 37.96C128.188 37.96 126.562 38.6267 125.255 39.96V49.44C125.868 49.9467 126.548 50.36 127.295 50.68C128.068 50.9733 128.975 51.12 130.015 51.12ZM150.096 54.4C148.896 54.4 147.776 54.1867 146.736 53.76C145.723 53.3333 144.91 52.6933 144.296 51.84C143.683 50.96 143.376 49.88 143.376 48.6C143.376 46.7867 143.99 45.3333 145.216 44.24C146.47 43.12 148.39 42.56 150.976 42.56H157.056V41.72C157.056 40.8133 156.91 40.0933 156.616 39.56C156.35 39.0267 155.843 38.64 155.096 38.4C154.376 38.16 153.31 38.04 151.896 38.04C149.656 38.04 147.563 38.3733 145.616 39.04V35.8C146.47 35.4533 147.51 35.1733 148.736 34.96C149.963 34.7467 151.283 34.64 152.696 34.64C155.47 34.64 157.576 35.2 159.016 36.32C160.483 37.44 161.216 39.2667 161.216 41.8V54H157.496L157.216 52.08C156.443 52.8267 155.483 53.4 154.336 53.8C153.216 54.2 151.803 54.4 150.096 54.4ZM151.256 51.28C152.563 51.28 153.696 51.0667 154.656 50.64C155.643 50.1867 156.443 49.5867 157.056 48.84V45.52H151.056C149.776 45.52 148.843 45.7733 148.256 46.28C147.696 46.76 147.416 47.5067 147.416 48.52C147.416 49.5067 147.75 50.2133 148.416 50.64C149.083 51.0667 150.03 51.28 151.256 51.28ZM173.731 61.04C172.318 61.04 170.905 60.9467 169.491 60.76C168.078 60.6 166.878 60.3467 165.891 60V56.64C166.958 56.9867 168.185 57.2533 169.571 57.44C170.958 57.6267 172.278 57.72 173.531 57.72C175.451 57.72 176.851 57.6133 177.731 57.4C178.611 57.1867 179.051 56.7067 179.051 55.96C179.051 55.4 178.838 55 178.411 54.76C177.985 54.5467 177.171 54.44 175.971 54.44H170.851C167.411 54.44 165.691 53.2267 165.691 50.8C165.691 50.0267 165.918 49.3067 166.371 48.64C166.825 47.9733 167.545 47.4667 168.531 47.12C167.438 46.5867 166.625 45.8533 166.091 44.92C165.585 43.9867 165.331 42.8667 165.331 41.56C165.331 39.1333 166.051 37.3733 167.491 36.28C168.958 35.1867 171.145 34.64 174.051 34.64C174.665 34.64 175.305 34.6933 175.971 34.8C176.638 34.88 177.158 34.96 177.531 35.04H184.491L184.371 37.88H181.171C181.678 38.3067 182.051 38.84 182.291 39.48C182.531 40.12 182.651 40.8133 182.651 41.56C182.651 43.5867 182.038 45.1867 180.811 46.36C179.585 47.5067 177.731 48.08 175.251 48.08C174.825 48.08 174.425 48.0667 174.051 48.04C173.705 47.9867 173.318 47.9333 172.891 47.88C172.091 47.96 171.371 48.1733 170.731 48.52C170.091 48.8667 169.771 49.3333 169.771 49.92C169.771 50.32 169.931 50.6133 170.251 50.8C170.571 50.96 171.105 51.04 171.851 51.04H177.171C179.065 51.04 180.518 51.4533 181.531 52.28C182.571 53.08 183.091 54.2533 183.091 55.8C183.091 57.6667 182.278 59 180.651 59.8C179.051 60.6267 176.745 61.04 173.731 61.04ZM174.051 45.32C175.785 45.32 176.985 45.0267 177.651 44.44C178.345 43.8533 178.691 42.8533 178.691 41.44C178.691 40.0267 178.345 39 177.651 38.36C176.985 37.72 175.785 37.4 174.051 37.4C172.425 37.4 171.238 37.7067 170.491 38.32C169.745 38.9333 169.371 39.9733 169.371 41.44C169.371 42.8 169.718 43.7867 170.411 44.4C171.131 45.0133 172.345 45.32 174.051 45.32ZM197.409 54.4C194.102 54.4 191.542 53.5867 189.729 51.96C187.916 50.3333 187.009 47.84 187.009 44.48C187.009 41.44 187.782 39.04 189.329 37.28C190.876 35.52 193.222 34.64 196.369 34.64C199.249 34.64 201.409 35.4 202.849 36.92C204.316 38.4133 205.049 40.3467 205.049 42.72V46.24H191.169C191.382 48.08 192.049 49.3467 193.169 50.04C194.289 50.7333 195.996 51.08 198.289 51.08C199.249 51.08 200.236 50.9867 201.249 50.8C202.262 50.6133 203.142 50.3733 203.889 50.08V53.28C203.036 53.6533 202.049 53.9333 200.929 54.12C199.836 54.3067 198.662 54.4 197.409 54.4ZM191.169 43.4H201.209V42.08C201.209 40.7733 200.849 39.76 200.129 39.04C199.409 38.2933 198.196 37.92 196.489 37.92C194.462 37.92 193.062 38.36 192.289 39.24C191.542 40.12 191.169 41.5067 191.169 43.4Z" fill="white"/>
</svg>
